#tb 0: 1/1000
0,          0,          0,        0,     1728, adf7e84a351847683f6a8dd177019e29
0,         33,         33,        0,     1728, 8227cf283a27277fbab3d7826e340337
0,         66,         66,        0,     1728, a5551b16db948e395537310d12128e76
0,        100,        100,        0,     1728, 4b57ed07dbc15de9ab6143656b2a7e8e
0,        133,        133,        0,     1728, a15489495f0acc41f446e9689e4142d6
0,        166,        166,        0,     1728, b0a0d5d3ff756e8ae19797455432755c
0,        200,        200,        0,     1728, 094a440243d36edcdd3e9d0d070de011
0,        233,        233,        0,     1728, a780bd61e1abbfbb28581784531608bd
0,        266,        266,        0,     1728, 55886a8c7aad65683aa9366a38382512
0,        300,        300,        0,     1728, 5ae5b24383f66720a62ed1001664051f
